<svg width="500" height="500" viewBox="0 0 500 500" fill="none" xmlns="http://www.w3.org/2000/svg">
<circle cx="250" cy="250" r="250" fill="#202020"/>
<path d="M136.75 337L195.75 259.5V337H238.5V161.5H195.75V238.5L137.25 161.5H87L155 247.5L84.5 337H136.75Z" fill="white"/>
<path d="M239.25 249C239.25 231.667 243 216.25 250.5 202.75C258 189.083 268.417 178.5 281.75 171C295.25 163.333 310.5 159.5 327.5 159.5C348.333 159.5 366.167 165 381 176C395.833 187 405.75 202 410.75 221H363.75C360.25 213.667 355.25 208.083 348.75 204.25C342.417 200.417 335.167 198.5 327 198.5C313.833 198.5 303.167 203.083 295 212.25C286.833 221.417 282.75 233.667 282.75 249C282.75 264.333 286.833 276.583 295 285.75C303.167 294.917 313.833 299.5 327 299.5C335.167 299.5 342.417 297.583 348.75 293.75C355.25 289.917 360.25 284.333 363.75 277H410.75C405.75 296 395.833 311 381 322C366.167 332.833 348.333 338.25 327.5 338.25C310.5 338.25 295.25 334.5 281.75 327C268.417 319.333 258 308.75 250.5 295.25C243 281.75 239.25 266.333 239.25 249Z" fill="url(#paint0_linear_19_6)"/>
<defs>
<linearGradient id="paint0_linear_19_6" x1="258.5" y1="167.5" x2="388" y2="337" gradientUnits="userSpaceOnUse">
<stop stop-color="#FF4B32"/>
<stop offset="1" stop-color="#EF9D00"/>
</linearGradient>
</defs>
</svg>
