<svg width="1000" height="1000" viewBox="0 0 1000 1000" fill="none" xmlns="http://www.w3.org/2000/svg">
<g opacity="0.9">
<path d="M179.5 395.5C55.9098 329.473 75.9997 224.124 233 184.5C460.855 126.995 558.034 163.257 665 226C806.5 309 884 467.5 884 550C884 613.373 769.5 588.5 769.5 787.5C769.5 891.513 696.394 891.51 510.813 891.5L505.5 891.5C323.752 891.5 236.833 868.167 213.5 809.5C183.666 734 325.5 473.5 179.5 395.5Z" fill="url(#paint0_linear_26_150)"/>
<ellipse cx="154.045" cy="595.003" rx="45.5" ry="100.04" transform="rotate(5.59978 154.045 595.003)" fill="url(#paint1_linear_26_150)"/>
<ellipse cx="809.783" cy="766.099" rx="19.2662" ry="21.745" transform="rotate(56.2553 809.783 766.099)" fill="url(#paint2_linear_26_150)"/>
<ellipse cx="850.984" cy="670.171" rx="33.9727" ry="45.5613" transform="rotate(22.82 850.984 670.171)" fill="url(#paint3_linear_26_150)"/>
<ellipse cx="444.501" cy="114.067" rx="27.1128" ry="52.7021" transform="rotate(83.3111 444.501 114.067)" fill="url(#paint4_linear_26_150)"/>
</g>
<defs>
<linearGradient id="paint0_linear_26_150" x1="-121.253" y1="192.624" x2="892.747" y2="678.124" gradientUnits="userSpaceOnUse">
<stop stop-color="#FF4B32"/>
<stop offset="1" stop-color="#EF9D00"/>
</linearGradient>
<linearGradient id="paint1_linear_26_150" x1="154.045" y1="494.962" x2="154.045" y2="695.043" gradientUnits="userSpaceOnUse">
<stop stop-color="#FC3F1D"/>
<stop offset="1" stop-color="#F9B035"/>
</linearGradient>
<linearGradient id="paint2_linear_26_150" x1="809.783" y1="744.354" x2="809.783" y2="787.844" gradientUnits="userSpaceOnUse">
<stop stop-color="#FC3F1D"/>
<stop offset="1" stop-color="#F9B035"/>
</linearGradient>
<linearGradient id="paint3_linear_26_150" x1="850.984" y1="624.61" x2="850.984" y2="715.732" gradientUnits="userSpaceOnUse">
<stop stop-color="#FC3F1D"/>
<stop offset="1" stop-color="#F9B035"/>
</linearGradient>
<linearGradient id="paint4_linear_26_150" x1="444.501" y1="61.3648" x2="444.501" y2="166.769" gradientUnits="userSpaceOnUse">
<stop stop-color="#FC3F1D"/>
<stop offset="1" stop-color="#F9B035"/>
</linearGradient>
</defs>
</svg>
